<svg width="350" height="350" viewBox="0 0 350 350" fill="none" xmlns="http://www.w3.org/2000/svg">
<g clip-path="url(#clip0)">
<path d="M207.595 209.967L272.031 148.345C258.647 96.1553 205.488 64.697 153.298 78.0817C129.795 84.109 109.381 98.6786 96.042 118.946C97.0394 118.921 207.595 209.967 207.595 209.967Z" fill="#0364B8"/>
<path d="M138.037 130.546L138.034 130.557C125.722 122.931 111.522 118.9 97.0393 118.92C96.7047 118.92 96.3759 118.941 96.0419 118.945C52.9628 119.479 18.4727 154.834 19.0061 197.913C19.1995 213.54 24.0822 228.748 33.0211 241.567L129.556 229.476L203.568 169.798L138.037 130.546Z" fill="#0078D4"/>
<path d="M272.031 148.346C270.615 148.251 269.191 148.186 267.751 148.186C259.107 148.177 250.552 149.943 242.618 153.373L242.616 153.366L203.568 169.799L246.616 222.974L323.574 241.681C340.182 210.85 328.651 172.393 297.82 155.785C289.853 151.494 281.06 148.957 272.032 148.346V148.346H272.031Z" fill="#1490DF"/>
<path d="M33.0215 241.568C47.5975 262.524 71.5127 275.014 97.04 275H267.751C291.071 275.007 312.512 262.21 323.575 241.682L203.568 169.799L33.0215 241.568Z" fill="#28A8EA"/>
</g>
<defs>
<clipPath id="clip0">
<rect width="312.17" height="200" fill="white" transform="translate(19 75)"/>
</clipPath>
</defs>
</svg>
