<svg width="59" height="43" viewBox="0 0 59 43" fill="none" xmlns="http://www.w3.org/2000/svg">
<path d="M2 42C2.70061 40.344 7.57937 30.4591 10.0251 25.5676C13.0823 19.4532 14.7638 16.5871 16.1395 14.2942C17.286 12.3834 22.7634 3.46668 24.3557 2.06547C24.4282 1.993 24.5226 1.96451 24.6036 2.06547M21.8717 38.5607C22.1979 34.647 22.6484 29.2354 23.0962 23.8479M24.6036 2.06547C24.7362 2.23071 24.8327 2.74271 24.7379 3.97621C24.6409 5.23656 23.8727 14.5059 23.0962 23.8479M24.6036 2.06547C25.349 3.14822 27.4511 7.95054 29.8969 18.4978M23.0962 23.8479C20.3952 23.9753 11.5537 26.4575 3.62085 38.5607" stroke="#E2C191" stroke-width="2.5"/>
<path d="M57.793 42C57.0924 40.344 52.2136 30.4591 49.7678 25.5676C46.7107 19.4532 45.0292 16.5871 43.6535 14.2942C42.507 12.3834 37.0295 3.46668 35.4373 2.06547C35.3648 1.993 35.2703 1.96451 35.1893 2.06547M37.9212 38.5607C37.5951 34.647 37.1445 29.2354 36.6968 23.8479M35.1893 2.06547C35.0568 2.23071 34.9602 2.74271 35.0551 3.97621C35.1521 5.23656 35.9203 14.5059 36.6968 23.8479M35.1893 2.06547C34.444 3.14822 32.3419 7.95054 29.8961 18.4978M36.6968 23.8479C39.3978 23.9753 48.2392 26.4575 56.1721 38.5607" stroke="#E2C191" stroke-width="2.5"/>
</svg>
