<svg width="58" height="42" viewBox="0 0 58 42" fill="none" xmlns="http://www.w3.org/2000/svg">
<path fill-rule="evenodd" clip-rule="evenodd" d="M24.3836 0.439671C24.4183 0.482962 24.4497 0.528028 24.4782 0.574402C24.9373 1.27657 25.6642 2.84012 26.5569 5.40355C27.2422 7.37129 28.0384 9.96732 28.8968 13.2891C29.7552 9.96732 30.5514 7.37129 31.2367 5.40355C32.1294 2.84012 32.8563 1.27657 33.3154 0.574402C33.3439 0.528028 33.3753 0.482962 33.41 0.439671C33.6125 0.18726 33.9587 -0.0328598 34.4001 0.00387368C34.7444 0.0325213 34.9847 0.206897 35.1161 0.330266C35.6159 0.776934 36.3149 1.68861 37.0474 2.71935C37.8147 3.79912 38.6934 5.1184 39.5526 6.44519C41.2718 9.09988 42.9338 11.8167 43.5116 12.7797C44.8992 15.0924 46.5932 17.981 49.6629 24.1204C52.0985 28.9915 56.998 38.9166 57.7146 40.6104L55.8727 41.3896C55.6668 40.903 55.0835 39.6724 54.3016 38.0558C47.4972 27.7025 40.101 24.6705 36.7969 24.0026C37.2101 28.9725 37.6173 33.8637 37.9185 37.4776L35.9254 37.6437C35.5992 33.73 35.1487 28.3183 34.7009 22.9308C34.1332 16.1006 33.5695 9.30495 33.2696 5.65207C33.2223 5.78493 33.1742 5.92133 33.1254 6.06134C32.215 8.67547 31.0874 12.4776 29.8709 17.7237L28.8968 17.4978L27.9227 17.7237C26.7062 12.4776 25.5786 8.67547 24.6682 6.06134C24.6194 5.92133 24.5713 5.78493 24.524 5.65207C24.2241 9.30495 23.6604 16.1006 23.0927 22.9308C22.6449 28.3183 22.1944 33.73 21.8682 37.6437L19.8751 37.4776C20.1763 33.8637 20.5835 28.9725 20.9967 24.0026C17.6926 24.6705 10.2964 27.7025 3.49196 38.0558C2.71008 39.6724 2.12679 40.903 1.92091 41.3896L0.0789795 40.6104C0.795566 38.9166 5.6951 28.9915 8.13064 24.1204C11.2004 17.981 12.8944 15.0924 14.282 12.7797C14.8597 11.8167 16.5218 9.09988 18.241 6.44519C19.1002 5.1184 19.9789 3.79912 20.7462 2.71935C21.4787 1.68861 22.1777 0.776934 22.6775 0.330266C22.8089 0.206897 23.0492 0.0325213 23.3935 0.00387368C23.8349 -0.0328598 24.1811 0.18726 24.3836 0.439671ZM22.6986 3.43024C22.5116 5.75282 21.8508 13.7254 21.1681 21.9412C18.4179 22.3614 13.1011 24.249 7.49605 29.8905C8.39399 28.0755 9.24684 26.3602 9.9195 25.0148C12.9642 18.9255 14.6331 16.0818 15.9969 13.8087C16.5656 12.8609 18.2155 10.164 19.9197 7.53232C20.7722 6.21591 21.6332 4.92386 22.3765 3.87793C22.488 3.72096 22.5955 3.57163 22.6986 3.43024ZM35.095 3.43024C35.282 5.75282 35.9428 13.7254 36.6255 21.9412C39.3757 22.3614 44.6925 24.249 50.2975 29.8905C49.3996 28.0755 48.5468 26.3602 47.8741 25.0148C44.8294 18.9255 43.1605 16.0818 41.7966 13.8087C41.228 12.8609 39.5781 10.164 37.8739 7.53232C37.0214 6.21591 36.1604 4.92386 35.4171 3.87793C35.3056 3.72096 35.1981 3.57163 35.095 3.43024Z" fill="#E2C191"/>
</svg>
